<svg enable-background="new 0 0 75.449 75.449" height="512" viewBox="0 0 75.449 75.449" width="512" xmlns="http://www.w3.org/2000/svg"><g fill="#fff"><path d="m36.949 16.144c.384 0 .768-.146 1.061-.439l6.79-6.79c.586-.585.586-1.536 0-2.121-.586-.586-1.535-.586-2.121 0l-6.79 6.79c-.586.585-.586 1.536 0 2.121.292.292.676.439 1.06.439z"/><path d="m43.509 23.324c.293.293.677.439 1.061.439s.768-.146 1.061-.439l7.66-7.66c.586-.585.586-1.536 0-2.121-.586-.586-1.535-.586-2.121 0l-7.66 7.66c-.587.586-.587 1.536-.001 2.121z"/><path d="m55.919 12.414c.384 0 .768-.146 1.061-.439l3.31-3.31c.586-.585.586-1.536 0-2.121-.586-.586-1.535-.586-2.121 0l-3.31 3.31c-.586.585-.586 1.536 0 2.121.293.292.676.439 1.06.439z"/><path d="m75.009 7.063c-.586-.586-1.535-.586-2.121 0l-21.76 21.76c-.586.585-.586 1.536 0 2.121.293.293.677.439 1.061.439s.768-.146 1.061-.439l21.76-21.76c.585-.585.585-1.535-.001-2.121z"/><path d="m46.998 44.049c-.001-.008-.002-.016-.003-.024-.372-5.13-2.36-9.877-5.736-13.704-.314-.375-.654-.743-1.069-1.157-3.985-3.985-9.25-6.401-14.836-6.816-.005-.001-.01-.001-.015-.002-.024-.002-.047-.007-.071-.008-6.471-.485-12.905 1.751-17.624 6.104-.256.223-.512.467-.745.7-4.844 4.833-7.335 11.529-6.837 18.365.002.025.007.049.008.074.001.011.002.022.004.032.408 5.579 2.812 10.839 6.784 14.822.423.422.791.762 1.125 1.04 3.87 3.433 8.648 5.439 13.813 5.805.585.043 1.169.065 1.751.065 6.203-.001 12.182-2.46 16.664-6.932.1-.099.199-.201.29-.312 4.607-4.783 6.977-11.333 6.504-17.98-.001-.025-.006-.048-.007-.072zm-37.978-12.785c.187-.186.39-.382.626-.588 3.77-3.477 8.757-5.403 13.878-5.403.061 0 .122.006.183.007.015 1.424-.12 2.841-.405 4.241l-.583-.11c-.816-.155-1.6.379-1.754 1.193-.155.814.379 1.599 1.193 1.754l.336.063c-.453 1.25-1.038 2.449-1.736 3.597l-.467-.275c-.712-.421-1.632-.185-2.054.529-.421.713-.185 1.633.529 2.054l.262.154c-.421.514-.864 1.013-1.339 1.483-.104.104-.214.216-.383.363-.415.394-.847.764-1.29 1.119l-.338-.414c-.526-.64-1.472-.732-2.111-.205-.64.526-.731 1.472-.205 2.111l.177.217c-1.151.679-2.366 1.231-3.631 1.665l-.175-.497c-.277-.78-1.134-1.19-1.916-.911-.781.276-1.189 1.134-.912 1.915l.095.271c-1.316.25-2.652.362-3.995.351-.041-5.494 2.107-10.784 6.015-14.684zm-.039 29.05c-3.088-3.095-5.085-7.076-5.736-11.354 1.603-.005 3.195-.176 4.761-.505l.307.872c.216.618.796 1.006 1.417 1.006.164 0 .331-.026.494-.084.782-.272 1.195-1.128.922-1.91l-.243-.691c1.594-.549 3.114-1.274 4.546-2.158l.597.73c.296.364.729.554 1.165.554.333 0 .667-.11.945-.336.643-.523.74-1.468.217-2.11l-.457-.559c.49-.393.963-.8 1.4-1.216.169-.145.338-.312.489-.463.657-.65 1.255-1.354 1.822-2.076l.801.472c.239.141.501.208.76.208.514 0 1.014-.264 1.293-.738.421-.713.184-1.633-.53-2.054l-.609-.359c.875-1.444 1.581-2.971 2.12-4.561l.88.166c.093.018.187.026.278.026.708 0 1.337-.503 1.473-1.224.153-.814-.383-1.598-1.197-1.751l-.646-.122c.304-1.503.463-3.024.464-4.555 4.274.659 8.257 2.665 11.355 5.763.318.317.609.626.915.991 2.611 2.961 4.268 6.524 4.847 10.39-1.509-.001-3.007.151-4.483.443l-.105-.56c-.152-.812-.932-1.347-1.75-1.199-.814.152-1.352.936-1.2 1.75l.146.781c-1.615.534-3.16 1.237-4.616 2.108l-.294-.498c-.422-.713-1.34-.949-2.054-.529-.714.421-.951 1.341-.53 2.055l.402.681c-.724.568-1.428 1.164-2.069 1.805-.222.209-.431.42-.576.597-.396.423-.779.869-1.15 1.329l-.436-.356c-.642-.525-1.587-.428-2.11.213-.524.642-.429 1.587.213 2.111l.608.496c-.895 1.454-1.625 2.991-2.174 4.599l-.545-.192c-.781-.277-1.638.134-1.914.914-.276.781.134 1.639.915 1.914l.75.264c-.325 1.544-.499 3.119-.503 4.712-3.868-.587-7.433-2.257-10.416-4.901-.335-.282-.643-.573-.959-.889zm29.312-.244c-.048.049-.075.079-.116.135l-.137.138c-3.912 3.903-9.195 6.047-14.676 5.997-.012-1.331.097-2.65.342-3.947l.418.147c.164.058.331.084.496.084.62 0 1.199-.387 1.416-1.004.274-.782-.138-1.638-.92-1.912l-.632-.222c.437-1.283.995-2.516 1.682-3.684l.335.273c.279.229.615.339.948.339.435 0 .866-.188 1.163-.551.524-.642.429-1.587-.212-2.11l-.521-.426c.336-.418.689-.829 1.07-1.237.123-.146.253-.274.423-.436.482-.481.99-.93 1.513-1.358l.224.38c.28.474.78.737 1.293.737.259 0 .521-.067.761-.208.714-.421.951-1.341.53-2.055l-.342-.58c1.157-.694 2.373-1.274 3.647-1.723l.079.422c.135.721.765 1.224 1.473 1.224.091 0 .185-.008.278-.025.814-.153 1.351-.937 1.198-1.751l-.123-.66c1.37-.273 2.761-.401 4.16-.385.027 5.358-2.032 10.544-5.77 14.398z"/></g></svg>