<svg enable-background="new 0 0 512 512" height="512" viewBox="0 0 512 512" width="512" xmlns="http://www.w3.org/2000/svg"><path d="m359.634 329.303c25.575-26.157 41.366-61.918 41.366-101.303 0-22.506-5.156-44.382-15-64.251v-1.559-22.19-10c0-71.683-58.317-130-130-130s-130 58.317-130 130v10 22.19 1.557c-9.832 19.886-15 41.888-15 64.253 0 40.377 16.596 76.946 43.316 103.262l-43.316 20.265v-123.527-172.5c0-30.603-24.897-55.5-55.5-55.5s-55.5 24.897-55.5 55.5v456.5h512v-108.372zm-203.634-199.303c0-55.141 44.859-100 100-100s100 44.859 100 100v10h-200zm190.188 40-20.956 34.577c-22.107-9.577-45.669-14.365-69.232-14.365s-47.125 4.788-69.231 14.365l-20.956-34.577zm-205.188 58c0-11.258 1.656-22.395 4.848-33.06l29.683 48.977 12.527-6.682c42.543-22.689 93.34-22.689 135.883 0l12.527 6.682 29.695-48.997c3.189 10.639 4.837 21.758 4.837 33.08 0 63.411-51.589 115-115 115s-115-51.589-115-115zm-111-172.5c0-14.061 11.439-25.5 25.5-25.5s25.5 11.439 25.5 25.5v310.062l-51 23.86zm452 426.5h-452v-59.457l150.854-70.575c21.927 13.342 47.656 21.032 75.146 21.032 28.695 0 55.47-8.38 78.007-22.819l147.993 72.191z" fill="#fff"/></svg>