<svg enable-background="new 0 0 512 512" height="512" viewBox="0 0 512 512" width="512" xmlns="http://www.w3.org/2000/svg"><path d="m416.323 0c-4.142 0-7.5 3.358-7.5 7.5v.516h-25.081v-.516c0-4.142-3.358-7.5-7.5-7.5s-7.5 3.358-7.5 7.5v40.597h-8.535c-4.142 0-7.5 3.358-7.5 7.5s3.358 7.5 7.5 7.5h8.535v185.403h-225.485v-185.403h184.884c4.142 0 7.5-3.358 7.5-7.5s-3.358-7.5-7.5-7.5h-184.884v-40.597c0-4.142-3.358-7.5-7.5-7.5s-7.5 3.358-7.5 7.5v.516h-25.08v-.516c0-4.142-3.358-7.5-7.5-7.5s-7.5 3.358-7.5 7.5v497c0 4.142 3.358 7.5 7.5 7.5s7.5-3.358 7.5-7.5v-.516h25.08v.516c0 4.142 3.358 7.5 7.5 7.5s7.5-3.358 7.5-7.5v-40.597h8.535c4.142 0 7.5-3.358 7.5-7.5s-3.358-7.5-7.5-7.5h-8.535v-185.403h225.484v185.403h-184.883c-4.142 0-7.5 3.358-7.5 7.5s3.358 7.5 7.5 7.5h184.884v40.597c0 4.142 3.358 7.5 7.5 7.5s7.5-3.358 7.5-7.5v-.516h25.081v.516c0 4.142 3.358 7.5 7.5 7.5s7.5-3.358 7.5-7.5v-497c0-4.142-3.358-7.5-7.5-7.5zm-313.147 143.258h25.08v25.081h-25.08zm0 80.161h25.08v25.081h-25.08zm0 120.242h25.08v25.081h-25.08zm0 40.081h25.08v25.081h-25.08zm0 65.161v-25.081h25.08v25.081zm25.081 40.081h-25.08v-25.081h25.08zm0-160.323h-25.08v-25.081h25.08zm0-40.08h-25.08v-25.081h25.08zm0-80.161h-25.08v-25.081h25.08zm0-80.162h-25.08v-25.081h25.08zm0-40.081h-25.08v-25.08h25.08zm0-40.08h-25.08v-25.081h25.08zm255.484-25.081h25.081v25.081h-25.081zm0 160.323h25.081v25.081h-25.081zm0 40.08h25.081v25.081h-25.081zm25.081 265.565h-25.081v-25.081h25.081zm0-40.081h-25.081v-25.081h25.081zm0-40.08h-25.081v-25.081h25.081zm.001-40.081h-25.081v-25.081h25.081zm0-40.081h-25.081v-25.081h25.081zm0-40.08h-25.081v-25.081h25.081zm0-120.242h-25.081v-25.081h25.081zm0-40.081h-25.081v-25.081h25.081zm0-40.08h-25.081v-25.081h25.081z" fill="#fff"/></svg>