<svg enable-background="new 0 0 393.2 393.2" viewBox="0 0 393.2 393.2" xmlns="http://www.w3.org/2000/svg"><path d="m296.8 217c-9.6 0-17.6 8-17.6 17.6v126.8c0 9.6 8 17.6 17.6 17.6s17.6-8 17.6-17.6v-126.4c.4-10-7.6-18-17.6-18z"/><path d="m392 225.8c0-23.2-4-46-12-67.2-6.8-18.8-16.8-36.8-29.2-52.8 1.6-3.6 2.8-7.6 2.8-11.2 0-6.8-2.4-13.2-7.6-18.4-20.4-20.4-43.6-35.6-68.8-46-26-10.8-53.6-16-81.2-16s-55.2 5.2-81.2 16c-25.2 10.4-48.4 25.6-68.8 46-5.2 5.2-7.6 11.6-7.6 18.4 0 4 .8 7.6 2.8 11.2-12.4 16-22.4 34-29.2 52.8-7.6 21.2-12 44-12 67.2v72.4c0 18 7.2 34.4 19.2 46.4 9.6 9.6 22 16 36 18.4v-129.2-.4c-13.6 2-25.6 8.4-34.8 17.2v-25.2c0-20.8 3.6-41.2 10.8-60.4 6-16.8 14.8-32.4 25.6-46.4 2.8.8 5.6 1.2 8.4 1.2 6.4 0 12.8-2.4 17.6-6.8l.8-.8c15.2-15.2 32.8-26.8 51.6-34.8 19.6-8 40.4-12 61.2-12s41.6 4 61.2 12c18.8 7.6 36.4 19.2 51.6 34.8l.4.4c5.2 4.8 11.6 7.6 18.4 7.6 2.8 0 5.6-.4 8.4-1.2 10.8 14 19.2 30 25.6 46.4 6.8 19.2 10.8 39.6 10.8 60.4v25.2c-9.6-8.8-21.6-15.2-34.8-17.2v.4 128.8c14-2 26.4-8.8 36-18.4 12-12 19.2-28 19.2-46.4v-72.4z"/><path d="m95.2 217c-9.6 0-17.6 8-17.6 17.6v126.8c0 9.6 8 17.6 17.6 17.6s17.6-8 17.6-17.6v-126.4c0-10-8-18-17.6-18z"/></svg>