<svg viewBox="0 0 210.124 55.41" xmlns="http://www.w3.org/2000/svg"><path d="m7.598 50.019a7.598 7.598 0 0 1 -7.598-7.597v-34.821a7.6 7.6 0 0 1 7.598-7.601l193.672.016c4.198 0 7.601 3.4 7.601 7.595v34.823c0 4.195-3.403 7.594-7.601 7.594z" fill="#fff"/><path d="m204.851 4.033a5.018 5.018 0 0 0 -3.581-1.484h-27.085l12.528 20.898 1.149.141.666.955v.908l.812.14.717 1.003v.858l.809.139.811.911v1.95s1.77 1.623 3.342 2.242c1.098.429 1.243 2.196 1.864 3.147.856 1.339 2.004 1.905 1.765 2.672-.569 2.054-2.668 5.49-4.622 5.679 0 0-4.865.007-7.732.007l.003 3.303h14.972a5.075 5.075 0 0 0 5.067-5.067v-34.824a5.025 5.025 0 0 0 -1.485-3.578z" fill="#d50032"/><path d="m166.768 2.549-159.17-.016a5.024 5.024 0 0 0 -3.581 1.484 5.039 5.039 0 0 0 -1.482 3.584v34.822c0 1.348.528 2.621 1.482 3.578a5.023 5.023 0 0 0 3.581 1.481l142.115.02c-.8-1.324-1.684-2.827-1.961-3.285h-3.769c-.005-9.347 3.19-14.549 6.959-15.552.525-.098.287-2.674-.384-3.435 0 0-1.813.051-2.192-.047-.481-.141-.143-.619-.143-.619l1.759-3.817-.236-1.047h-6.537l5.387-3.771c.282-9.922 10.446-10.69 16.596-6.593 3.631 2.433 3.918 7.203 3.636 10.545l-.954.044s-.619 3.629 1.003 3.628l7.152-.007c2.908-.096 5.727 1.86 5.727 1.86l.714-2.482-15.702-20.375z" fill="#002d72"/><path d="m208.48 52.462c-.71 0-1.284.559-1.284 1.303 0 .736.574 1.291 1.284 1.291.703 0 1.284-.555 1.284-1.291 0-.745-.581-1.303-1.284-1.303zm.617 2.006h-.333l-.33-.575h-.252v.575h-.3v-1.446h.699c.332 0 .556.065.556.446 0 .26-.134.401-.39.424z" fill="none"/><path d="m208.516 53.281h-.334v.35h.405c.16 0 .253-.037.253-.188 0-.162-.179-.162-.324-.162z" fill="none"/><g fill="#fff"><path d="m209.138 53.468c0-.382-.224-.446-.556-.446h-.699v1.446h.3v-.575h.252l.33.575h.333l-.35-.575c.256-.024.39-.165.39-.425zm-.551.163h-.405v-.35h.334c.145 0 .324 0 .324.161 0 .152-.093.189-.253.189z"/><path d="m208.48 52.103c-.924 0-1.648.738-1.648 1.661 0 .913.723 1.646 1.648 1.646.919 0 1.644-.734 1.644-1.646 0-.923-.725-1.661-1.644-1.661zm0 2.952c-.71 0-1.284-.555-1.284-1.291 0-.744.574-1.303 1.284-1.303.703 0 1.284.559 1.284 1.303 0 .736-.581 1.291-1.284 1.291z"/><path d="m16.21 11.723h8.129l6.144 18.064h.074l5.812-18.064h8.13v26.268h-5.408v-18.615h-.073l-6.438 18.615h-4.452l-6.437-18.431h-.074v18.431h-5.407zm33.368 0h5.775v21.411h12.803v4.856h-18.578zm22.962 0h12.36c5.003 0 8.389 1.62 8.389 6.513 0 2.574-1.289 4.378-3.569 5.482 3.2.92 4.818 3.384 4.818 6.658 0 5.335-4.524 7.616-9.27 7.616h-12.728zm5.775 10.632h5.85c2.023 0 3.532-.919 3.532-3.127 0-2.501-1.913-3.016-3.974-3.016h-5.408zm0 11.147h6.181c2.28 0 4.268-.737 4.268-3.457 0-2.687-1.693-3.753-4.157-3.753h-6.292zm42.084-9.386h-5.335v13.875h-4.658v-13.875h-5.334v-4.007h15.327zm11.169 13.875h-5.359l-5.636-17.882h4.86l3.504 13.298h.052l3.506-13.298h4.858z"/><circle cx="100.696" cy="35.128" r="2.937"/></g></svg>