<svg enable-background="new 0 0 512 512" viewBox="0 0 512 512" xmlns="http://www.w3.org/2000/svg" xmlns:xlink="http://www.w3.org/1999/xlink"><linearGradient id="a" gradientTransform="matrix(1 0 0 -1 0 514)" gradientUnits="userSpaceOnUse" x1="256" x2="256" y1="514" y2="2"><stop offset="0" stop-color="#2af598"/><stop offset="1" stop-color="#009efd"/></linearGradient><path d="m256 512c-68.38 0-132.667-26.629-181.02-74.98-48.351-48.353-74.98-112.64-74.98-181.02s26.629-132.667 74.98-181.02c48.353-48.351 112.64-74.98 181.02-74.98s132.667 26.629 181.02 74.98c48.351 48.353 74.98 112.64 74.98 181.02s-26.629 132.667-74.98 181.02c-48.353 48.351-112.64 74.98-181.02 74.98zm0-472c-119.103 0-216 96.897-216 216s96.897 216 216 216 216-96.897 216-216-96.897-216-216-216zm-91 350.562v-269.124l234.138 134.562zm40-200v130.877l113.862-65.439z" fill="url(#a)"/></svg>