<svg enable-background="new 0 0 512 512" height="512" viewBox="0 0 512 512" width="512" xmlns="http://www.w3.org/2000/svg"><path d="m256 0c-141.383 0-256 114.615-256 256s114.617 256 256 256 256-114.615 256-256-114.617-256-256-256zm88.48 269.57-128 80c-2.59 1.617-5.535 2.43-8.48 2.43-2.668 0-5.34-.664-7.758-2.008-5.086-2.82-8.242-8.172-8.242-13.992v-160c0-5.82 3.156-11.172 8.242-13.992 5.086-2.836 11.305-2.664 16.238.422l128 80c4.676 2.93 7.52 8.055 7.52 13.57s-2.844 10.641-7.52 13.57z" fill="#939694"/></svg>