<svg enable-background="new 0 0 512 512" viewBox="0 0 512 512" xmlns="http://www.w3.org/2000/svg"><g fill="#231f20"><path d="m354.2 247.4-135.1-92.4c-4.2-3.1-15.4-3.1-16.3 8.6v184.8c1 11.7 12.4 11.9 16.3 8.6l135.1-92.4c3.5-2.1 8.3-10.7 0-17.2zm-130.5 81.3v-145.4l106.1 72.7z"/><path d="m256 11c-135.1 0-245 109.9-245 245s109.9 245 245 245 245-109.9 245-245-109.9-245-245-245zm0 469.1c-123.6 0-224.1-100.5-224.1-224.1s100.5-224.1 224.1-224.1 224.1 100.5 224.1 224.1-100.5 224.1-224.1 224.1z"/></g></svg>