<svg enable-background="new 0 0 480 480" height="512" viewBox="0 0 480 480" width="512" xmlns="http://www.w3.org/2000/svg"><path d="m472 304h-144v-136c0-4.418-3.582-8-8-8h-40v-8c0-2.122-.844-4.156-2.344-5.656l-13.656-13.656v-17.376l4.32-4.32c35.417-11.252 59.528-44.071 59.68-81.232v-5.76c0-4.418-3.582-8-8-8h-16.256c.08-1.752.256-3.488.256-5.256v-2.744c0-4.418-3.582-8-8-8h-112c-4.418 0-8 3.582-8 8v2.744c0 1.768.176 3.504.256 5.256h-16.256c-4.418 0-8 3.582-8 8v5.76c.152 37.161 24.263 69.98 59.68 81.232l4.32 4.32v17.376l-13.656 13.656c-1.5 1.5-2.344 3.534-2.344 5.656v8h-40c-4.418 0-8 3.582-8 8v136h-144c-4.418 0-8 3.582-8 8v160c0 4.418 3.582 8 8 8h464c4.418 0 8-3.582 8-8v-160c0-4.418-3.582-8-8-8zm-320 160h-136v-144h136zm150.016-432h9.984c-.952 26.059-16.391 49.399-40 60.472v-1.4c15.526-16.361 25.955-36.886 30.016-59.072zm-94.016 60.472c-23.609-11.073-39.048-34.413-40-60.472h9.952c4.07 22.19 14.511 42.715 30.048 59.072zm-15.864-76.472h95.728c-1.169 23.898-10.832 46.593-27.248 64h-41.232c-16.416-17.406-26.079-40.102-27.248-64zm37.52 90.344-5.656-5.656v-4.688h32v4.688l-5.656 5.656c-1.5 1.5-2.344 3.534-2.344 5.656v16h-16v-16c0-2.122-.844-4.156-2.344-5.656zm-13.656 48.968 11.312-11.312h25.376l11.312 11.312v4.688h-48zm96 308.688h-144v-152-136h144zm152 0h-136v-144h136z" fill="#fff"/></svg>